<mxfile host="app.diagrams.net" agent="Mozilla/5.0 (Windows NT 10.0; Win64; x64) AppleWebKit/537.36 (KHTML, like Gecko) Chrome/131.0.0.0 Safari/537.36" version="24.8.6">
  <diagram id="XNHBBVvSD7BfzJwFbyg2" name="Strona-2">
    <mxGraphModel dx="1195" dy="643" grid="1" gridSize="10" guides="1" tooltips="1" connect="1" arrows="1" fold="1" page="1" pageScale="1" pageWidth="827" pageHeight="1169" math="0" shadow="0">
      <root>
        <mxCell id="0" />
        <mxCell id="1" parent="0" />
        <mxCell id="6ze8ezQ12YMR2CTtZ2g3-1" value="Warstwa prezentacji (ang. Presentation Layer)" style="rounded=0;whiteSpace=wrap;html=1;" vertex="1" parent="1">
          <mxGeometry x="258" y="170" width="311" height="70" as="geometry" />
        </mxCell>
        <mxCell id="6ze8ezQ12YMR2CTtZ2g3-2" value="Warstwa logiki biznesowej (ang. Business Logic Layer)" style="rounded=0;whiteSpace=wrap;html=1;" vertex="1" parent="1">
          <mxGeometry x="259" y="320" width="311" height="70" as="geometry" />
        </mxCell>
        <mxCell id="6ze8ezQ12YMR2CTtZ2g3-3" value="Warstwa dostÄ™pu do danych (ang. Data Access Layer)" style="rounded=0;whiteSpace=wrap;html=1;" vertex="1" parent="1">
          <mxGeometry x="258" y="470" width="311" height="70" as="geometry" />
        </mxCell>
        <mxCell id="6ze8ezQ12YMR2CTtZ2g3-4" value="Warstwa danych (ang. Data Layer)" style="rounded=0;whiteSpace=wrap;html=1;" vertex="1" parent="1">
          <mxGeometry x="259" y="620" width="311" height="70" as="geometry" />
        </mxCell>
        <mxCell id="6ze8ezQ12YMR2CTtZ2g3-5" value="Actor" style="shape=umlActor;verticalLabelPosition=bottom;verticalAlign=top;html=1;outlineConnect=0;" vertex="1" parent="1">
          <mxGeometry x="414" y="20" width="30" height="60" as="geometry" />
        </mxCell>
        <mxCell id="6ze8ezQ12YMR2CTtZ2g3-6" value="" style="shape=datastore;whiteSpace=wrap;html=1;" vertex="1" parent="1">
          <mxGeometry x="710" y="625" width="60" height="60" as="geometry" />
        </mxCell>
        <mxCell id="6ze8ezQ12YMR2CTtZ2g3-7" value="" style="endArrow=classic;html=1;rounded=0;entryX=0.355;entryY=0.017;entryDx=0;entryDy=0;entryPerimeter=0;" edge="1" parent="1" target="6ze8ezQ12YMR2CTtZ2g3-1">
          <mxGeometry width="50" height="50" relative="1" as="geometry">
            <mxPoint x="370" y="80" as="sourcePoint" />
            <mxPoint x="430" y="290" as="targetPoint" />
          </mxGeometry>
        </mxCell>
        <mxCell id="6ze8ezQ12YMR2CTtZ2g3-8" value="" style="endArrow=classic;html=1;rounded=0;exitX=0.75;exitY=0;exitDx=0;exitDy=0;" edge="1" parent="1" source="6ze8ezQ12YMR2CTtZ2g3-1">
          <mxGeometry width="50" height="50" relative="1" as="geometry">
            <mxPoint x="380" y="340" as="sourcePoint" />
            <mxPoint x="490" y="80" as="targetPoint" />
          </mxGeometry>
        </mxCell>
        <mxCell id="6ze8ezQ12YMR2CTtZ2g3-9" value="" style="endArrow=none;html=1;rounded=0;" edge="1" parent="1">
          <mxGeometry width="50" height="50" relative="1" as="geometry">
            <mxPoint x="360" y="80" as="sourcePoint" />
            <mxPoint x="500" y="80" as="targetPoint" />
          </mxGeometry>
        </mxCell>
        <mxCell id="6ze8ezQ12YMR2CTtZ2g3-10" value="" style="endArrow=classic;html=1;rounded=0;entryX=0.355;entryY=0.017;entryDx=0;entryDy=0;entryPerimeter=0;" edge="1" parent="1">
          <mxGeometry width="50" height="50" relative="1" as="geometry">
            <mxPoint x="360" y="240" as="sourcePoint" />
            <mxPoint x="360" y="320" as="targetPoint" />
          </mxGeometry>
        </mxCell>
        <mxCell id="6ze8ezQ12YMR2CTtZ2g3-11" value="" style="endArrow=classic;html=1;rounded=0;entryX=0.355;entryY=0.017;entryDx=0;entryDy=0;entryPerimeter=0;" edge="1" parent="1">
          <mxGeometry width="50" height="50" relative="1" as="geometry">
            <mxPoint x="360" y="390" as="sourcePoint" />
            <mxPoint x="360" y="470" as="targetPoint" />
          </mxGeometry>
        </mxCell>
        <mxCell id="6ze8ezQ12YMR2CTtZ2g3-12" value="" style="endArrow=classic;html=1;rounded=0;entryX=0.355;entryY=0.017;entryDx=0;entryDy=0;entryPerimeter=0;" edge="1" parent="1">
          <mxGeometry width="50" height="50" relative="1" as="geometry">
            <mxPoint x="360" y="540" as="sourcePoint" />
            <mxPoint x="360" y="620" as="targetPoint" />
          </mxGeometry>
        </mxCell>
        <mxCell id="6ze8ezQ12YMR2CTtZ2g3-13" value="" style="endArrow=classic;html=1;rounded=0;entryX=0.725;entryY=1.017;entryDx=0;entryDy=0;exitX=0.724;exitY=0.029;exitDx=0;exitDy=0;exitPerimeter=0;entryPerimeter=0;" edge="1" parent="1" source="6ze8ezQ12YMR2CTtZ2g3-2" target="6ze8ezQ12YMR2CTtZ2g3-1">
          <mxGeometry width="50" height="50" relative="1" as="geometry">
            <mxPoint x="490" y="320" as="sourcePoint" />
            <mxPoint x="490" y="250" as="targetPoint" />
          </mxGeometry>
        </mxCell>
        <mxCell id="6ze8ezQ12YMR2CTtZ2g3-14" value="" style="endArrow=classic;html=1;rounded=0;entryX=0.725;entryY=1.017;entryDx=0;entryDy=0;exitX=0.724;exitY=0.029;exitDx=0;exitDy=0;exitPerimeter=0;entryPerimeter=0;" edge="1" parent="1">
          <mxGeometry width="50" height="50" relative="1" as="geometry">
            <mxPoint x="494" y="470" as="sourcePoint" />
            <mxPoint x="493" y="389" as="targetPoint" />
          </mxGeometry>
        </mxCell>
        <mxCell id="6ze8ezQ12YMR2CTtZ2g3-15" value="" style="endArrow=classic;html=1;rounded=0;entryX=0.725;entryY=1.017;entryDx=0;entryDy=0;exitX=0.724;exitY=0.029;exitDx=0;exitDy=0;exitPerimeter=0;entryPerimeter=0;" edge="1" parent="1">
          <mxGeometry width="50" height="50" relative="1" as="geometry">
            <mxPoint x="501" y="620" as="sourcePoint" />
            <mxPoint x="500" y="539" as="targetPoint" />
          </mxGeometry>
        </mxCell>
        <mxCell id="6ze8ezQ12YMR2CTtZ2g3-16" value="" style="endArrow=classic;html=1;rounded=0;exitX=1;exitY=0.25;exitDx=0;exitDy=0;entryX=0;entryY=0.158;entryDx=0;entryDy=0;entryPerimeter=0;" edge="1" parent="1" source="6ze8ezQ12YMR2CTtZ2g3-4" target="6ze8ezQ12YMR2CTtZ2g3-6">
          <mxGeometry width="50" height="50" relative="1" as="geometry">
            <mxPoint x="380" y="430" as="sourcePoint" />
            <mxPoint x="430" y="380" as="targetPoint" />
          </mxGeometry>
        </mxCell>
        <mxCell id="6ze8ezQ12YMR2CTtZ2g3-17" value="" style="endArrow=classic;html=1;rounded=0;exitX=0;exitY=0.7;exitDx=0;exitDy=0;entryX=1.013;entryY=0.636;entryDx=0;entryDy=0;entryPerimeter=0;" edge="1" parent="1">
          <mxGeometry width="50" height="50" relative="1" as="geometry">
            <mxPoint x="710" y="687.48" as="sourcePoint" />
            <mxPoint x="574.0430000000001" y="685" as="targetPoint" />
          </mxGeometry>
        </mxCell>
        <mxCell id="6ze8ezQ12YMR2CTtZ2g3-18" value="Baza danych" style="text;html=1;align=center;verticalAlign=middle;resizable=0;points=[];autosize=1;strokeColor=none;fillColor=none;" vertex="1" parent="1">
          <mxGeometry x="695" y="690" width="90" height="30" as="geometry" />
        </mxCell>
        <mxCell id="6ze8ezQ12YMR2CTtZ2g3-21" value="a)" style="text;html=1;align=center;verticalAlign=middle;whiteSpace=wrap;rounded=0;" vertex="1" parent="1">
          <mxGeometry x="210" y="190" width="60" height="30" as="geometry" />
        </mxCell>
        <mxCell id="6ze8ezQ12YMR2CTtZ2g3-22" value="b)" style="text;html=1;align=center;verticalAlign=middle;whiteSpace=wrap;rounded=0;" vertex="1" parent="1">
          <mxGeometry x="210" y="340" width="60" height="30" as="geometry" />
        </mxCell>
        <mxCell id="6ze8ezQ12YMR2CTtZ2g3-23" value="c)" style="text;html=1;align=center;verticalAlign=middle;whiteSpace=wrap;rounded=0;" vertex="1" parent="1">
          <mxGeometry x="210" y="480" width="60" height="30" as="geometry" />
        </mxCell>
        <mxCell id="6ze8ezQ12YMR2CTtZ2g3-24" value="d)" style="text;html=1;align=center;verticalAlign=middle;whiteSpace=wrap;rounded=0;" vertex="1" parent="1">
          <mxGeometry x="210" y="640" width="60" height="30" as="geometry" />
        </mxCell>
        <mxCell id="6ze8ezQ12YMR2CTtZ2g3-25" value="e)" style="text;html=1;align=center;verticalAlign=middle;whiteSpace=wrap;rounded=0;" vertex="1" parent="1">
          <mxGeometry x="660" y="650" width="60" height="30" as="geometry" />
        </mxCell>
      </root>
    </mxGraphModel>
  </diagram>
</mxfile>
